<svg width="25" height="28" viewBox="0 0 25 28" fill="none" xmlns="http://www.w3.org/2000/svg">
  <path d="M24.8581 6.97667L21.3556 18.634L18.8931 26.8252C18.7908 27.1629 18.5833 27.4585 18.3013 27.6686C18.0193 27.8786 17.6777 27.9919 17.3268 27.9918H17.2758C17.4224 27.9919 17.567 27.9575 17.6979 27.8913C17.8289 27.8251 17.9427 27.729 18.0301 27.6106C18.1176 27.4922 18.1763 27.3549 18.2015 27.2096C18.2267 27.0643 18.2178 26.915 18.1755 26.7738L15.0382 16.3298L17.3245 8.71966C17.4767 8.21377 17.7865 7.77055 18.2082 7.45544C18.6299 7.14032 19.1412 6.97 19.6664 6.96966H24.8569L24.8581 6.97667Z" fill="#2C8CFF"/>
  <path d="M18.1766 26.782L15.0394 16.3392L12.7508 8.72899C12.5986 8.22311 12.2888 7.77989 11.8671 7.46477C11.4453 7.14965 10.9341 6.97934 10.4089 6.97899H1.52112C1.28421 6.97911 1.0506 7.03494 0.838948 7.14206C0.627292 7.24917 0.443454 7.4046 0.3021 7.59592C0.160745 7.78724 0.06579 8.00917 0.0248175 8.24398C-0.016155 8.47879 -0.00201255 8.71999 0.0661162 8.94833L4.76157 24.5735C5.05984 25.5649 5.66709 26.4335 6.49362 27.051C7.32015 27.6684 8.32213 28.002 9.35152 28.0023H17.2805C17.427 28.002 17.5714 27.9671 17.7022 27.9006C17.833 27.834 17.9464 27.7376 18.0335 27.619C18.1206 27.5004 18.1789 27.3629 18.2038 27.2176C18.2286 27.0722 18.2193 26.9231 18.1766 26.782ZM7.52435 12.4052C7.20252 12.5907 6.83115 12.6703 6.46212 12.6331C6.0931 12.5958 5.74487 12.4435 5.46609 12.1973C5.18731 11.9512 4.99191 11.6235 4.90721 11.2602C4.82251 10.8968 4.85273 10.5159 4.99365 10.1707C5.13458 9.8255 5.37917 9.53321 5.69323 9.3347C6.00729 9.13619 6.37513 9.04137 6.74536 9.06351C7.11558 9.08564 7.46969 9.22362 7.75818 9.45816C8.04668 9.6927 8.25515 10.0121 8.35446 10.3717C8.50502 10.7528 8.50262 11.1778 8.34776 11.5572C8.19289 11.9366 7.89767 12.2406 7.52435 12.4052Z" fill="#27CCFF"/>
</svg>
